# xmcd
#
# Track frame offsets:
#	151
#	6193
#	10410
#	17861
#	22249
#	27217
#	60345
#	80475
#	87786
#	114873
#	145895
#	155090
#	176379
#
# Disc length: 2458 seconds
#
# Revision: 0
# Processed by: cddbd v1.5.1PL0 Copyright (c) Steve Scherf et al.
# Submitted via: dBpowerAMP V4.0
#
DISCID=9809980d
DTITLE=Various Artist - amb
DYEAR=2004
DGENRE=y
TTITLE0=mi - Track01
TTITLE1=mi - Track02
TTITLE2=mi - Track03
TTITLE3=mi - Track04
TTITLE4=mi - Track05
TTITLE5=mi - Track06
TTITLE6=mi - Track07
TTITLE7=mi - Track08
TTITLE8=mi - Track09
TTITLE9=mi - Track10
TTITLE10=mi - Track11
TTITLE11=mi - Track12
TTITLE12=mi - Track13
EXTD=
EXTT0=
EXTT1=
EXTT2=
EXTT3=
EXTT4=
EXTT5=
EXTT6=
EXTT7=
EXTT8=
EXTT9=
EXTT10=
EXTT11=
EXTT12=
PLAYORDER=
